#!OML:ASF X:\für Bonn\!DataBase\2005_08_11_Bastian_Final\c3d\Bastian.ASF
:FULLY-SPECIFIED
:DEGREES
108
root 5.42208 14.8267 -3.2994 151.711 80.4678 -203.869
lowerback 62.8962 -10.2494 10.6347
upperback 17.322 0.836033 3.44645
thorax -1.3957 2.73804 -0.903543
lowerneck -2.76262 -13.7916 -2.06594
upperneck -15.9065 -16.8936 18.6347
head -2.39659 -9.23546 5.95835
rclavicle 3.49861e-014 2.78299e-014
rhumerus 32.7456 1.03049 -50.206
rradius 22.5932
rwrist 0.101992
rhand -30.4445 -0.56264
rfingers 7.12502
rthumb -3.74674 -30.5095
lclavicle 3.49861e-014 2.78299e-014
lhumerus 6.02862 -29.4372 70.8219
lradius 69.7408
lwrist 22.3961
lhand -16.3195 -11.6042
lfingers 7.12502
lthumb 9.8919 18.1434
rfemur -49.7952 -1.40297 12.0492
rtibia 72.369
rfoot -12.1163 -2.04755
rtoes -20.1466
lfemur -43.2071 1.57754 -30.7655
ltibia 70.2032
lfoot -12.4059 -8.3159
ltoes 9.65954
109
root 5.42576 14.7404 -3.29825 150.599 80.3751 -205.456
lowerback 63.2366 -10.3336 10.6307
upperback 17.3275 0.829377 3.41932
thorax -1.37999 2.74306 -0.913553
lowerneck -2.57015 -13.7984 -1.97252
upperneck -16.4941 -16.8287 18.7285
head -2.60907 -9.2495 6.02813
rclavicle 3.18055e-015 5.00937e-014
rhumerus 33.2401 0.999671 -49.486
rradius 22.6137
rwrist -0.315912
rhand -30.5014 -0.621312
rfingers 7.12502
rthumb -3.80161 -30.5671
lclavicle 3.18055e-015 5.00937e-014
lhumerus 6.01161 -29.2075 70.6912
lradius 69.6081
lwrist 22.5038
lhand -16.2853 -11.5363
lfingers 7.12502
lthumb 9.92494 18.2098
rfemur -51.0547 -1.52929 11.7552
rtibia 73.5096
rfoot -12.1608 -2.00196
rtoes -19.3455
lfemur -44.352 1.34822 -31.1016
ltibia 71.3066
lfoot -12.8603 -8.20037
ltoes 9.93606
110
root 5.43027 14.6541 -3.29748 149.356 80.2585 -207.161
lowerback 63.5738 -10.42 10.6072
upperback 17.3356 0.805421 3.36738
thorax -1.36207 2.74247 -0.937034
lowerneck -2.36953 -13.7867 -1.76827
upperneck -17.1141 -16.7348 18.7708
head -2.85232 -9.25424 6.07384
rclavicle 2.8625e-014 8.82604e-014
rhumerus 33.7393 0.878072 -48.9003
rradius 22.5917
rwrist -0.563189
rhand -30.5546 -0.761619
rfingers 7.12502
rthumb -3.85306 -30.7065
lclavicle 2.8625e-014 8.82604e-014
lhumerus 6.07345 -28.9901 70.5468
lradius 69.3307
lwrist 22.6332
lhand -16.2806 -11.5223
lfingers 7.12502
lthumb 9.92946 18.2235
rfemur -52.3003 -1.66493 11.4245
rtibia 74.6464
rfoot -12.2058 -1.91884
rtoes -18.4896
lfemur -45.4635 1.12146 -31.4638
ltibia 72.3992
lfoot -13.3079 -8.12423
ltoes 10.1567
111
root 5.43533 14.5679 -3.29643 148.295 80.1405 -208.655
lowerback 63.9446 -10.522 10.6078
upperback 17.3249 0.788155 3.32704
thorax -1.36121 2.74406 -0.958656
lowerneck -2.21526 -13.7678 -1.64136
upperneck -17.6676 -16.6351 18.8566
head -3.05709 -9.24911 6.13474
rclavicle 4.13472e-014 -1.59028e-015
rhumerus 34.1778 0.774694 -48.2757
rradius 22.604
rwrist -0.809216
rhand -30.6147 -0.907163
rfingers 7.12502
rthumb -3.91106 -30.851
lclavicle 4.13472e-014 -1.59028e-015
lhumerus 6.17801 -28.7963 70.4843
lradius 68.8828
lwrist 22.7552
lhand -16.2199 -11.5719
lfingers 7.12502
lthumb 9.98798 18.1711
rfemur -53.4889 -1.78205 11.1216
rtibia 75.7661
rfoot -12.2697 -1.88906
rtoes -17.8708
lfemur -46.5502 0.927623 -31.8054
ltibia 73.4888
lfoot -13.7786 -8.05019
ltoes 10.0606
112
root 5.44212 14.4783 -3.29436 147.267 80.02 -210.115
lowerback 64.2841 -10.6018 10.5466
upperback 17.3518 0.758186 3.31006
thorax -1.32364 2.73694 -0.925633
lowerneck -2.11639 -13.718 -1.55866
upperneck -18.2008 -16.497 18.9318
head -3.24772 -9.21788 6.19438
rclavicle -2.22639e-014 -4.37326e-015
rhumerus 34.6311 0.761463 -47.5798
rradius 22.6814
rwrist -1.13124
rhand -30.668 -1.07534
rfingers 7.12502
rthumb -3.96256 -31.0182
lclavicle -2.22639e-014 -4.37326e-015
lhumerus 6.32612 -28.544 70.4359
lradius 68.3476
lwrist 22.8991
lhand -16.183 -11.5951
lfingers 7.12502
lthumb 10.0236 18.1462
rfemur -54.6842 -1.91576 10.832
rtibia 76.8833
rfoot -12.34 -1.85618
rtoes -17.141
lfemur -47.641 0.739335 -32.1394
ltibia 74.5798
lfoot -14.2053 -7.9828
ltoes 10.1294
113
root 5.44932 14.3895 -3.29332 146.06 79.8833 -211.713
lowerback 64.6721 -10.6945 10.5044
upperback 17.3478 0.730578 3.26493
thorax -1.31616 2.73368 -0.931534
lowerneck -1.98177 -13.696 -1.44618
upperneck -18.6933 -16.4004 19.0119
head -3.43095 -9.21023 6.25091
rclavicle -3.18055e-015 -2.14687e-014
rhumerus 34.9965 0.712634 -46.9105
rradius 22.7434
rwrist -1.40107
rhand -30.8753 -1.19125
rfingers 7.12502
rthumb -4.16271 -31.1303
lclavicle -3.18055e-015 -2.14687e-014
lhumerus 6.44622 -28.3868 70.3945
lradius 67.7659
lwrist 23.071
lhand -16.1028 -11.5972
lfingers 7.12502
lthumb 10.1009 18.1404
rfemur -55.8293 -2.05809 10.5068
rtibia 77.9961
rfoot -12.4659 -1.80738
rtoes -16.474
lfemur -48.654 0.551891 -32.4987
ltibia 75.6513
lfoot -14.6453 -7.94741
ltoes 10.4921
114
root 5.45798 14.2985 -3.2913 144.934 79.7225 -213.201
lowerback 65.0787 -10.7963 10.462
upperback 17.3295 0.696355 3.21215
thorax -1.32293 2.72784 -0.94318
lowerneck -1.8158 -13.6698 -1.28874
upperneck -19.1905 -16.2942 19.0843
head -3.6276 -9.20206 6.30324
rclavicle -3.18055e-014 5.12864e-014
rhumerus 35.337 0.615528 -46.3177
rradius 22.7932
rwrist -1.5833
rhand -31.1609 -1.33158
rfingers 7.12502
rthumb -4.43852 -31.2651
lclavicle -3.18055e-014 5.12864e-014
lhumerus 6.55 -28.2768 70.3182
lradius 67.165
lwrist 23.2846
lhand -15.9742 -11.5902
lfingers 7.12502
lthumb 10.2251 18.1413
rfemur -56.9299 -2.21319 10.1839
rtibia 79.099
rfoot -12.6407 -1.78961
rtoes -16.1917
lfemur -49.6455 0.364626 -32.8644
ltibia 76.7338
lfoot -15.1091 -7.88873
ltoes 10.5226
